<?xml version="1.0" encoding="UTF-8" standalone="no"?>
<svg width="2003px" height="224px" viewBox="0 0 2003 224" version="1.1" xmlns="http://www.w3.org/2000/svg" xmlns:xlink="http://www.w3.org/1999/xlink" xmlns:sketch="http://www.bohemiancoding.com/sketch/ns">
    <title>Logo for sunnysingh.io</title>
    <description>Logo containing the text Sunny Singh.</description>
    <defs></defs>
    <g id="Page-1" stroke="none" stroke-width="1" fill="none" fill-rule="evenodd" sketch:type="MSPage">
        <path d="M173.8,42.5 C157.9,10.1 124,0.8 91.3,0.8 C52.6,1.1 10,18.8 10,62 C10,109.1 49.6,120.5 92.5,125.6 C120.4,128.6 141.1,136.7 141.1,156.5 C141.1,179.3 117.7,188 92.8,188 C67.3,188 43,177.8 33.7,154.7 L0.7,171.8 C16.3,210.2 49.3,223.4 92.2,223.4 C139,223.4 180.4,203.3 180.4,156.5 C180.4,106.4 139.6,95 95.8,89.6 C70.6,86.6 49,81.5 49,63.2 C49,47.6 63.1,35.3 92.5,35.3 C115.3,35.3 135.1,46.7 142.3,58.7 L173.8,42.5 Z M353.983333,8.3 L353.983333,128.6 C353.983333,164.6 335.383333,186.5 302.683333,186.5 C269.983333,186.5 248.383333,166.4 248.383333,128.6 L248.383333,8.3 L209.083333,8.3 L209.083333,128.6 C209.083333,191.9 251.983333,222.5 302.383333,222.5 C355.183333,222.5 393.283333,190.7 393.283333,128.6 L393.283333,8.3 L353.983333,8.3 Z M568.066666,138.2 L465.166666,8 L433.066666,8 L433.066666,218 L472.666666,218 L472.666666,76.4 L583.066666,218.3 L583.066666,218 L607.666666,218 L607.666666,7.7 L568.066666,7.7 L568.066666,138.2 Z M780.049999,138.2 L677.149999,8 L645.049999,8 L645.049999,218 L684.649999,218 L684.649999,76.4 L795.049999,218.3 L795.049999,218 L819.649999,218 L819.649999,7.7 L780.049999,7.7 L780.049999,138.2 Z M889.133332,8 L842.033332,8 L842.033332,9.8 L922.733332,131.3 L922.733332,218 L962.333332,218 L962.333332,131.3 L1046.03333,9.8 L1046.03333,8 L998.333332,8 L942.533332,94.7 L889.133332,8 Z M1281.3,42.5 C1265.4,10.1 1231.5,0.8 1198.8,0.8 C1160.1,1.1 1117.5,18.8 1117.5,62 C1117.5,109.1 1157.1,120.5 1200,125.6 C1227.9,128.6 1248.6,136.7 1248.6,156.5 C1248.6,179.3 1225.2,188 1200.3,188 C1174.8,188 1150.5,177.8 1141.2,154.7 L1108.2,171.8 C1123.8,210.2 1156.8,223.4 1199.7,223.4 C1246.5,223.4 1287.9,203.3 1287.9,156.5 C1287.9,106.4 1247.1,95 1203.3,89.6 C1178.1,86.6 1156.5,81.5 1156.5,63.2 C1156.5,47.6 1170.6,35.3 1200,35.3 C1222.8,35.3 1242.6,46.7 1249.8,58.7 L1281.3,42.5 Z M1356.18333,218 L1356.18333,8 L1316.88333,8 L1316.88333,218 L1356.18333,218 Z M1529.46666,138.2 L1426.56666,8 L1394.46666,8 L1394.46666,218 L1434.06666,218 L1434.06666,76.4 L1544.46666,218.3 L1544.46666,218 L1569.06666,218 L1569.06666,7.7 L1529.46666,7.7 L1529.46666,138.2 Z M1784.05,34.1 C1762.45,12.8 1734.25,2 1706.05,2 C1631.95,2 1595.05,56.6 1595.05,115.7 C1595.05,170.9 1627.15,222.8 1706.05,222.8 C1742.95,222.8 1769.05,208.7 1789.75,185 L1789.75,96.5 L1699.75,96.5 L1699.75,131.9 L1753.45,131.9 L1753.45,169.1 C1736.95,182.3 1722.55,185.9 1706.05,185.9 C1653.85,185.9 1633.75,150.2 1633.75,115.7 C1633.75,72.5 1661.05,38.3 1706.05,38.3 C1724.35,38.3 1745.35,45.8 1759.45,59.3 L1784.05,34.1 Z M2002.63333,218.3 L2002.63333,8.3 L1963.33333,8.3 L1963.33333,96.8 L1860.13333,96.8 L1860.13333,8.3 L1820.53333,8.3 L1820.53333,218.3 L1860.13333,218.3 L1860.13333,133.4 L1963.33333,133.4 L1963.33333,218.3 L2002.63333,218.3 Z" id="logo" fill="#0D2371" sketch:type="MSShapeGroup"></path>
    </g>
</svg>
