<?xml version="1.0" encoding="utf-8"?>
<!-- Generated by IcoMoon.io -->
<!DOCTYPE svg PUBLIC "-//W3C//DTD SVG 1.1//EN" "http://www.w3.org/Graphics/SVG/1.1/DTD/svg11.dtd">
<svg version="1.1" xmlns="http://www.w3.org/2000/svg" xmlns:xlink="http://www.w3.org/1999/xlink" width="32" height="32" viewBox="0 0 32 32">
<path fill="#3d49ba" d="M0 0h32v32h-32v-32z"></path>
<path opacity="0.1" fill="#fff" d="M3.188 2.188h8.5v8.5h-8.5v-8.5z"></path>
<path opacity="0.1" fill="#fff" d="M15.063 2.188h13.688v3.438h-13.688v-3.438z"></path>
<path opacity="0.1" fill="#fff" d="M15.063 7.313h13.688v3.375h-13.688v-3.375z"></path>
<path opacity="0.1" fill="#fff" d="M3.188 14.25h25.563v3.438h-25.563v-3.438z"></path>
<path opacity="0.1" fill="#fff" d="M3.188 20.313h25.563v3.375h-25.563v-3.375z"></path>
<path opacity="0.1" fill="#fff" d="M3.188 26.375h25.563v3.375h-25.563v-3.375z"></path>
<path fill="#f5f5f5" d="M13.247 17.223q-1.594 1.369-2.803 1.369t-1.397-1.2q-0.563 0.563-1.256 0.881t-1.219 0.319q-0.9 0-1.537-0.788t-0.638-2.438q0-2.475 1.050-3.891t2.372-1.416 2.222 0.6q0.581-3.037 0.581-4.781l-0.094-0.787q1.406-0.487 2.756-0.487 0.15 0.319 0.15 0.731 0 1.369-0.825 5.559t-0.825 5.691q0 0.45 0.206 0.45 0.113 0 0.713-0.356l0.188-0.113 0.356 0.656zM8.728 11.166q-0.656 0-1.134 1.294t-0.478 2.559 0.178 1.622 0.534 0.356q0.619 0 1.219-0.506 0.056-0.75 0.844-4.988-0.637-0.338-1.162-0.338zM13.697 15.123q0-2.344 1.416-3.703t3.216-1.359q1.106 0 1.819 0.544t0.712 1.453-0.459 1.528-1.116 0.956q-1.331 0.656-2.438 0.825l-0.45 0.056q0.131 1.763 1.444 1.763 0.45 0 0.956-0.225t0.788-0.45l0.281-0.225 0.45 0.6q-0.15 0.206-0.6 0.544t-0.844 0.563q-1.087 0.6-2.381 0.6t-2.044-0.919-0.75-2.55zM16.378 14.504q0.956-0.169 1.519-0.806t0.563-1.65-0.6-1.012q-0.712 0-1.097 1.209t-0.384 2.259zM23.081 10.060q0 0 0.408 0t0.811 0.338 0.403 1.387q0 0.563-0.337 2.297t-0.337 2.109q0 0.75 0.3 0.75 0.712 0 1.566-1.059t0.891-1.772l-1.275-1.425q0.075-0.806 0.394-1.463t0.6-0.919l0.262-0.244q0.806 0 1.219 0.431t0.413 1.012q0 1.481-0.731 3.131t-1.95 2.803-2.475 1.153q-0.788 0-1.209-0.488t-0.422-1.284 0.122-2.147 0.122-2.681q0-0.3-0.216-0.713t-0.441-0.656l0.056-0.225q1.012-0.338 1.828-0.338z"></path>
<path fill="#f5f5f5" d="M5.97 23.89h-0.214q0-0.529 0.321-2.025t0.321-1.699q0-0.371-0.315-0.788l-0.101-0.135 0.011-0.146q0.607-0.169 1.946-0.169 0.146 0.191 0.158 0.698 0.979-0.754 1.654-0.754 0.405 0 0.647 0.281t0.242 0.703-0.259 1.457-0.259 1.389 0.090 0.354q0.068 0 0.473-0.214l0.135-0.067 0.203 0.394q-0.101 0.090-0.27 0.225t-0.624 0.366-0.816 0.231q-0.821 0-0.821-0.934 0-0.394 0.253-1.451t0.253-1.361-0.191-0.304q-0.326 0-0.799 0.281-0.034 0.191-0.225 1.012-0.394 1.766-0.394 2.497-0.394 0.157-1.417 0.157zM11.336 21.91q0-1.406 0.849-2.222t1.929-0.816q0.664 0 1.091 0.326t0.428 0.872-0.276 0.917-0.669 0.574q-0.799 0.394-1.463 0.495l-0.27 0.034q0.079 1.058 0.866 1.058 0.27 0 0.574-0.135t0.473-0.27l0.169-0.135 0.27 0.36q-0.090 0.124-0.36 0.326t-0.506 0.337q-0.652 0.36-1.429 0.36t-1.226-0.551-0.45-1.53zM12.945 21.539q0.574-0.101 0.911-0.484t0.338-0.99-0.36-0.608q-0.428 0-0.658 0.726t-0.231 1.356zM16.117 22.934l0.124-2.936q0-0.383-0.405-0.788l0.023-0.135q0.079-0.023 0.152-0.039t0.169-0.039 0.219-0.045 0.259-0.045q0.315-0.034 0.591-0.034t0.473 0.225 0.197 0.714-0.152 1.395-0.152 1.35 0.214 0.444q0.349 0 0.765-0.439 0.011-0.18 0.146-1.148t0.135-1.406-0.067-0.754q0.866-0.326 1.552-0.326 0.146 0.101 0.146 0.658t-0.191 1.541-0.191 1.429 0.18 0.444q0.427 0 0.934-0.636t0.54-1.063l-0.765-0.855q0.045-0.484 0.236-0.878t0.36-0.551l0.157-0.146q0.484 0 0.731 0.259t0.247 0.608q0 0.889-0.439 1.879t-1.181 1.682-1.508 0.692q-0.383 0-0.647-0.219t-0.354-0.568q-0.788 0.788-1.53 0.788-0.495 0-0.731-0.309t-0.236-0.748zM26.366 22.383q0 0.709-0.624 1.159t-1.423 0.45-1.266-0.337-0.467-0.596q0-0.157 0.394-0.512t0.664-0.433q0.563 0.416 0.922 1.316 0.416-0.034 0.416-0.394 0-0.517-0.911-1.468t-0.911-1.513 0.506-0.872 1.221-0.309 1.074 0.253 0.36 0.686-0.686 1.198q0.079 0.079 0.203 0.208t0.326 0.489 0.203 0.675zM25.286 20.617q0.473-0.405 0.473-0.799t-0.54-0.394q-0.259 0-0.427 0.107t-0.169 0.242q0 0.247 0.495 0.698l0.169 0.146z"></path>
</svg>
