<?xml version="1.0" encoding="utf-8"?>
<!-- Generated by IcoMoon.io -->
<!DOCTYPE svg PUBLIC "-//W3C//DTD SVG 1.1//EN" "http://www.w3.org/Graphics/SVG/1.1/DTD/svg11.dtd">
<svg version="1.1" xmlns="http://www.w3.org/2000/svg" xmlns:xlink="http://www.w3.org/1999/xlink" width="16" height="16" viewBox="0 0 16 16">
<path fill="#a81f80" d="M1.941 10.052v4.858c0 0 2.675 1.076 5.995 1.076 4.581 0 6.303-1.906 6.303-4.827 0-2.798-1.845-4.704-6.303-4.981-1.537-0.123-2.306-0.461-2.306-1.322 0-0.953 0.676-1.384 2.306-1.384 0.676 0 1.384 0.154 2.091 0.307 0.092 1.199 0.277 2.121 0.277 2.121h3.013v-4.919c0 0-2.244-0.984-5.381-0.984-4.55 0-6.303 1.783-6.303 4.858 0 2.767 1.783 4.673 6.303 4.95 1.507 0.092 2.306 0.461 2.306 1.353 0 0.953-0.83 1.353-2.306 1.353-0.953 0-1.937-0.184-2.921-0.4-0.061-0.83-0.246-2.060-0.246-2.060h-2.829z"></path>
</svg>
