<?xml version="1.0" encoding="utf-8"?>
<!-- Generated by IcoMoon.io -->
<!DOCTYPE svg PUBLIC "-//W3C//DTD SVG 1.1//EN" "http://www.w3.org/Graphics/SVG/1.1/DTD/svg11.dtd">
<svg version="1.1" xmlns="http://www.w3.org/2000/svg" xmlns:xlink="http://www.w3.org/1999/xlink" width="32" height="32" viewBox="0 0 32 32">
<path fill="#0d2371" d="M27.667 5.996c-2.244-4.586-7.029-5.902-11.645-5.902-5.463 0.042-11.476 2.548-11.476 8.662 0 6.666 5.59 8.279 11.645 9.001 3.938 0.425 6.86 1.571 6.86 4.373 0 3.227-3.303 4.458-6.818 4.458-3.599 0-7.029-1.444-8.342-4.713l-4.658 2.42c2.202 5.435 6.86 7.303 12.915 7.303 6.606 0 12.45-2.845 12.45-9.468 0-7.091-5.759-8.704-11.942-9.468-3.557-0.425-6.606-1.146-6.606-3.736 0-2.208 1.99-3.949 6.14-3.949 3.218 0 6.013 1.613 7.029 3.312l4.446-2.293z"></path>
</svg>
