<?xml version="1.0" encoding="utf-8"?>
<!-- Generated by IcoMoon.io -->
<!DOCTYPE svg PUBLIC "-//W3C//DTD SVG 1.1//EN" "http://www.w3.org/Graphics/SVG/1.1/DTD/svg11.dtd">
<svg version="1.1" xmlns="http://www.w3.org/2000/svg" xmlns:xlink="http://www.w3.org/1999/xlink" width="16" height="16" viewBox="0 0 16 16">
<path fill="#0d2371" d="M13.834 2.998c-1.122-2.293-3.515-2.951-5.823-2.951-2.731 0.021-5.738 1.274-5.738 4.331 0 3.333 2.795 4.14 5.823 4.501 1.969 0.212 3.43 0.785 3.43 2.187 0 1.613-1.651 2.229-3.409 2.229-1.8 0-3.515-0.722-4.171-2.356l-2.329 1.21c1.101 2.717 3.43 3.651 6.458 3.651 3.303 0 6.225-1.422 6.225-4.734 0-3.545-2.88-4.352-5.971-4.734-1.779-0.212-3.303-0.573-3.303-1.868 0-1.104 0.995-1.974 3.070-1.974 1.609 0 3.007 0.807 3.515 1.656l2.223-1.146z"></path>
</svg>
