<?xml version="1.0" encoding="utf-8"?>
<!-- Generator: Adobe Illustrator 19.1.0, SVG Export Plug-In . SVG Version: 6.00 Build 0)  -->
<svg version="1.1" id="Layer_1" xmlns="http://www.w3.org/2000/svg" xmlns:xlink="http://www.w3.org/1999/xlink" x="0px" y="0px"
	 viewBox="-206.7 324 116.3 146" style="enable-background:new -206.7 324 116.3 146;" xml:space="preserve">
<style type="text/css">
	.st0{fill:#FFDD67;}
	.st1{fill:#FFFFFF;}
	.st2{opacity:0.2;}
</style>
<g id="color_icon">
	<path class="st0" d="M-149,325.7c30.7,0,55.6,24.9,55.6,55.6s-24.9,55.6-55.6,55.6s-55.6-24.9-55.6-55.6S-179.7,325.7-149,325.7"/>
	<g>
		<path d="M-141.3,362.6c-4.4,2.2-11,2.2-15.4,0c-4.7-2.4-10.5-4-17.3-4.6c-6.7-0.6-21-0.6-28.1,1.9c-0.8,0.3-1.6,0.7-2.4,1.1
			c-0.4,0.2-0.5,0.4-0.5,1.2v1.1c0,2-0.2,1.2,1.2,2c2.8,1.6,4.3,5.8,5.2,11.6c1.2,8.4,5.3,13.7,12.1,16.3c6.2,2.3,13.2,2.3,19.4-0.2
			c3.4-1.4,6.4-3.5,8.7-7c4.1-6.1,2.9-9.9,5-15.1c1.9-4.6,7.1-4.6,9,0c2.1,5.2,0.9,9,5,15.1c2.4,3.5,5.3,5.6,8.7,7
			c6.2,2.5,13.2,2.6,19.4,0.2c6.7-2.5,10.9-7.8,12.1-16.3c0.8-5.8,2.4-10,5.2-11.6c1.4-0.8,1.2-0.1,1.2-2v-1.1c0-0.8-0.1-1-0.5-1.2
			c-0.8-0.4-1.6-0.8-2.4-1.1c-7.1-2.5-21.4-2.5-28.1-1.9C-130.8,358.7-136.6,360.2-141.3,362.6"/>
	</g>
	<g>
		<path class="st1" d="M-144.4,449.5l5.3-3l12.7-7.3v14.5v14.5l-12.7-7.3l-5.3-3c-0.5,1.2-1.7,2-2.9,2h-3.3c-1.3,0-2.4-0.8-2.9-2
			l-5.3,3l-12.7,7.3v-14.5v-14.5l12.7,7.3l5.3,3c0.5-1.2,1.7-2,2.9-2h3.3C-146,447.6-144.9,448.4-144.4,449.5"/>
		<g class="st2">
			<path d="M-142.4,451.5c-1.6,1.2-2.1,3.4-0.2,4.6c2.9,2,6.8,3.8,10.2,5.5c-2.8-2.2-5.9-4.7-8.1-7.2c3.1-1,6.7-1.2,9-1.3
				c-2.5-0.4-6.1-0.6-8.7-0.5c2.6-2.8,5.5-5.1,8.5-6.7C-134.8,446.9-138.8,448.9-142.4,451.5"/>
			<path d="M-157.7,452.6c-2.6-0.2-6.3,0.1-8.7,0.5c2.3,0.1,5.9,0.2,9,1.3c-2.2,2.5-5.4,5.1-8.1,7.2c3.4-1.7,7.3-3.5,10.2-5.5
				c1.8-1.2,1.4-3.4-0.2-4.6c-3.6-2.6-7.6-4.6-10.6-5.6C-163.3,447.6-160.3,449.9-157.7,452.6"/>
		</g>
	</g>
	<g>
		<path d="M-168.7,403.2c2.1,3.3,5.1,5.7,8.5,7.4c3.4,1.7,7.3,2.5,11.2,2.5s7.8-0.8,11.2-2.5c3.4-1.7,6.4-4.1,8.5-7.4
			c0.5,3.9-1.5,8.1-5.3,11.1c-3.7,3-9.1,4.8-14.4,4.8c-5.4,0-10.7-1.8-14.4-4.8S-169.1,407.1-168.7,403.2z"/>
	</g>
</g>
</svg>
