<?xml version="1.0" standalone="no"?>
<!DOCTYPE svg PUBLIC "-//W3C//DTD SVG 20010904//EN"
 "http://www.w3.org/TR/2001/REC-SVG-20010904/DTD/svg10.dtd">
<svg version="1.0" xmlns="http://www.w3.org/2000/svg"
 width="700.000000pt" height="700.000000pt" viewBox="0 0 700.000000 700.000000"
 preserveAspectRatio="xMidYMid meet">
<metadata>
Created by potrace 1.11, written by Peter Selinger 2001-2013
</metadata>
<g transform="translate(0.000000,700.000000) scale(0.100000,-0.100000)"
fill="#000000" stroke="none">
<path d="M3270 6969 c-41 -3 -109 -9 -150 -13 -251 -21 -607 -103 -840 -192
-544 -209 -911 -512 -1115 -924 -179 -359 -219 -827 -109 -1270 100 -398 328
-709 694 -943 66 -42 240 -132 352 -181 127 -56 418 -148 588 -186 52 -12 102
-23 110 -25 8 -2 65 -13 125 -25 61 -12 117 -23 126 -25 9 -2 40 -6 69 -10 29
-4 60 -8 69 -10 15 -2 77 -12 131 -20 14 -2 66 -9 115 -15 50 -6 97 -13 105
-15 8 -2 42 -6 75 -10 33 -3 67 -8 75 -10 8 -2 42 -7 75 -10 32 -4 62 -8 65
-10 3 -1 27 -6 53 -9 43 -6 96 -16 164 -30 61 -13 227 -61 303 -87 392 -138
631 -364 678 -644 9 -55 8 -271 -2 -320 -53 -268 -231 -478 -517 -614 -98 -47
-264 -106 -326 -117 -16 -3 -55 -11 -88 -18 -33 -8 -82 -17 -110 -20 -27 -4
-66 -9 -85 -12 -170 -23 -536 -23 -684 1 -17 2 -53 7 -81 10 -120 14 -354 76
-485 127 -403 159 -691 411 -869 758 -29 58 -54 107 -56 108 -3 3 -287 -140
-480 -243 -86 -46 -300 -157 -430 -224 -44 -22 -86 -44 -93 -49 -25 -17 122
-313 251 -507 110 -164 249 -321 387 -438 47 -40 91 -77 98 -84 12 -11 124
-89 177 -123 36 -23 207 -120 212 -120 2 0 32 -14 66 -31 61 -31 331 -133 378
-143 13 -3 67 -17 119 -31 106 -27 94 -25 280 -59 74 -13 164 -27 200 -31 36
-3 79 -8 95 -10 101 -14 267 -20 535 -20 264 0 344 3 515 19 37 4 133 17 160
22 11 2 40 7 65 10 25 3 52 7 60 9 8 2 30 7 47 10 18 3 63 12 100 21 38 9 76
17 85 19 9 2 52 13 95 25 456 127 821 328 1085 596 120 122 220 250 276 354
35 63 102 199 102 205 0 4 6 21 14 38 34 75 93 291 102 377 3 25 8 52 10 60
21 62 21 510 1 615 -3 11 -7 43 -11 70 -26 190 -120 455 -223 630 -83 140
-276 347 -428 457 -214 155 -507 293 -820 384 -101 29 -342 90 -395 99 -19 3
-53 10 -75 15 -38 9 -302 53 -375 64 -19 2 -73 10 -120 16 -47 6 -96 13 -110
15 -29 5 -179 25 -230 31 -58 7 -175 27 -265 44 -27 5 -64 12 -82 15 -73 12
-269 67 -360 101 -116 43 -176 73 -258 128 -135 90 -210 184 -256 319 -24 73
-27 94 -25 202 2 113 17 192 47 247 5 10 9 22 9 28 0 14 75 135 107 171 84 96
176 165 308 233 112 56 308 115 440 132 22 3 46 7 53 10 56 18 494 26 622 11
191 -22 430 -88 610 -167 269 -118 521 -310 640 -486 18 -27 34 -51 36 -53 3
-3 217 104 319 159 28 15 185 96 350 180 165 84 302 154 304 156 10 8 -194
341 -229 374 -3 3 -23 28 -45 55 -77 97 -260 270 -355 335 -19 13 -37 27 -40
30 -3 4 -52 36 -110 72 -107 67 -303 165 -375 188 -22 7 -44 16 -50 20 -23 18
-342 112 -425 126 -14 3 -54 11 -90 19 -36 7 -89 17 -119 20 -30 3 -57 8 -60
9 -6 4 -38 8 -181 22 -30 3 -71 8 -90 10 -57 8 -529 11 -610 3z"/>
</g>
</svg>
