<?xml version="1.0" encoding="UTF-8" standalone="no"?>
<svg width="512px" height="512px" viewBox="0 0 512 512" version="1.1" xmlns="http://www.w3.org/2000/svg" xmlns:xlink="http://www.w3.org/1999/xlink" xmlns:sketch="http://www.bohemiancoding.com/sketch/ns">
    <title>logo</title>
    <description>Created with Sketch (http://www.bohemiancoding.com/sketch)</description>
    <defs></defs>
    <g id="Page-1" stroke="none" stroke-width="1" fill="none" fill-rule="evenodd" sketch:type="MSPage">
        <path d="M442.677082,95.9405605 C406.767748,22.5719955 330.20634,1.5125 256.355069,1.5125 C168.953107,2.19183857 72.743195,42.2728139 72.743195,140.097567 C72.743195,246.753722 162.177761,272.568587 259.065208,284.117343 C322.075925,290.910729 368.825811,309.25287 368.825811,354.089215 C368.825811,405.718946 315.978113,425.419765 259.742742,425.419765 C202.152302,425.419765 147.272,402.322253 126.268428,350.013184 L51.7396226,388.735482 C86.9714214,475.690818 161.500226,505.581715 258.387673,505.581715 C364.083069,505.581715 457.582843,460.066031 457.582843,354.089215 C457.582843,240.639675 365.438138,214.824809 266.518088,202.596715 C209.605182,195.80333 160.822692,184.254574 160.822692,142.814922 C160.822692,107.489316 192.666818,79.636435 259.065208,79.636435 C310.557836,79.636435 355.275119,105.4513 371.53595,132.624843 L442.677082,95.9405605 Z" id="S" fill="#0D2371" sketch:type="MSShapeGroup"></path>
    </g>
</svg>