<?xml version="1.0" encoding="UTF-8" standalone="no"?>
<svg width="1498px" height="304px" viewBox="0 0 1498 304" version="1.1" xmlns="http://www.w3.org/2000/svg" xmlns:xlink="http://www.w3.org/1999/xlink" xmlns:sketch="http://www.bohemiancoding.com/sketch/ns">
    <title>logo</title>
    <description>Created with Sketch (http://www.bohemiancoding.com/sketch)</description>
    <defs></defs>
    <g id="Page-1" stroke="none" stroke-width="1" fill="none" fill-rule="evenodd" sketch:type="MSPage">
        <path d="M936,78.4 C918.9,63.4 901.5,58.9 878.4,58.9 C851.4,58.9 816,70.9 816,105.1 C816,138.7 849.3,148.9 877.2,151 C898.2,152.2 906.6,156.4 906.6,166.6 C906.6,177.4 893.7,184.6 879.9,184.3 C863.4,184 839.4,175.3 828.9,163.6 L810.9,189.7 C832.5,212.2 855.9,216.1 879.3,216.1 C921.6,216.1 942.9,193.6 942.9,167.5 C942.9,128.2 907.5,121.9 879.6,120.1 C860.7,118.9 852,113.5 852,103.9 C852,94.6 861.6,89.2 879,89.2 C893.1,89.2 905.1,92.5 915.6,102.4 L936,78.4 Z M995.983333,62.5 L995.983333,211 L959.383333,211 L959.383333,62.5 L995.983333,62.5 Z M956.083333,21.4 C956.083333,-7.1 999.283333,-7.1 999.283333,21.4 C999.283333,49.9 956.083333,49.9 956.083333,21.4 Z M1167.56667,211 L1167.56667,133.3 C1167.56667,86.8 1139.66667,60.7 1104.86667,60.7 C1086.26667,60.7 1071.26667,68.2 1056.26667,82.9 L1053.86667,62.8 L1021.16667,62.8 L1021.16667,211 L1057.46667,211 L1057.46667,135.4 C1057.46667,112.9 1072.76667,94 1095.26667,94 C1118.66667,94 1130.96667,111.1 1130.96667,133.6 L1130.96667,211 L1167.56667,211 Z M1293.55,66.7 C1283.35,59.8 1271.35,58.3 1259.65,58.3 C1218.25,58.3 1184.65,87.1 1184.65,133.3 C1184.65,179.5 1213.45,207.7 1259.65,207.7 C1277.95,207.7 1297.15,217 1297.15,237.4 C1297.15,257.8 1280.65,269.2 1259.65,269.2 C1238.65,269.2 1220.95,256.6 1220.95,237.4 L1184.65,237.4 C1184.65,277.3 1216.75,303.4 1259.65,303.4 C1302.55,303.4 1333.75,278.2 1333.75,237.4 C1333.75,218.5 1327.75,200.8 1303.15,188.5 C1327.45,177.4 1334.35,151.6 1334.35,133.3 C1334.35,117.1 1330.15,102.4 1318.75,89.5 L1335.25,68.5 L1308.25,48.1 L1293.55,66.7 Z M1259.65,91.6 C1280.65,91.6 1298.05,107.8 1298.05,133.3 C1298.05,158.8 1280.65,174.4 1259.65,174.4 C1238.35,174.4 1220.95,159.1 1220.95,133.3 C1220.95,107.5 1238.35,91.6 1259.65,91.6 Z M1353.83333,1 L1353.83333,211 L1390.43333,211 L1390.43333,135.4 C1390.43333,113.2 1405.43333,94.9 1427.03333,94.9 C1446.53333,94.9 1460.63333,106.3 1460.63333,133.3 L1460.63333,211 L1497.23333,211 L1497.23333,133 C1497.23333,89.5 1478.63333,61 1436.63333,61 C1419.83333,61 1403.63333,66.1 1390.43333,83.2 L1390.43333,1 L1353.83333,1 Z" id="singh" fill="#000727" sketch:type="MSShapeGroup"></path>
        <path d="M126,78.4 C108.9,63.4 91.5,58.9 68.4,58.9 C41.4,58.9 6,70.9 6,105.1 C6,138.7 39.3,148.9 67.2,151 C88.2,152.2 96.6,156.4 96.6,166.6 C96.6,177.4 83.7,184.6 69.9,184.3 C53.4,184 29.4,175.3 18.9,163.6 L0.9,189.7 C22.5,212.2 45.9,216.1 69.3,216.1 C111.6,216.1 132.9,193.6 132.9,167.5 C132.9,128.2 97.5,121.9 69.6,120.1 C50.7,118.9 42,113.5 42,103.9 C42,94.6 51.6,89.2 69,89.2 C83.1,89.2 95.1,92.5 105.6,102.4 L126,78.4 Z M150.283333,63.1 L150.283333,140.8 C150.283333,186.7 176.083333,213.4 211.483333,213.4 C232.183333,213.4 246.283333,206.2 261.583333,191.2 L263.983333,211.3 L296.683333,211.3 L296.683333,63.1 L260.383333,63.1 L260.383333,138.7 C260.383333,161.2 245.083333,180.1 222.583333,180.1 C199.183333,180.1 186.883333,163 186.883333,140.5 L186.883333,63.1 L150.283333,63.1 Z M467.666666,211 L467.666666,133.3 C467.666666,86.8 439.766666,60.7 404.966666,60.7 C386.366666,60.7 371.366666,68.2 356.366666,82.9 L353.966666,62.8 L321.266666,62.8 L321.266666,211 L357.566666,211 L357.566666,135.4 C357.566666,112.9 372.866666,94 395.366666,94 C418.766666,94 431.066666,111.1 431.066666,133.6 L431.066666,211 L467.666666,211 Z M637.749999,211 L637.749999,133.3 C637.749999,86.8 609.849999,60.7 575.049999,60.7 C556.449999,60.7 541.449999,68.2 526.449999,82.9 L524.049999,62.8 L491.349999,62.8 L491.349999,211 L527.649999,211 L527.649999,135.4 C527.649999,112.9 542.949999,94 565.449999,94 C588.849999,94 601.149999,111.1 601.149999,133.6 L601.149999,211 L637.749999,211 Z M761.633332,63.1 L734.633332,127.9 L719.333332,168.7 L705.233332,127 L682.733332,63.1 L640.133332,63.1 L699.233332,208.6 L671.633332,272.8 L711.833332,272.8 L802.133332,63.1 L761.633332,63.1 Z" id="sunny" fill="#020D3E" sketch:type="MSShapeGroup"></path>
    </g>
</svg>