<?xml version="1.0" standalone="no"?><!-- Generator: Gravit.io --><svg xmlns="http://www.w3.org/2000/svg" xmlns:xlink="http://www.w3.org/1999/xlink" style="isolation:isolate" viewBox="0 0 500 500" width="500" height="500"><rect x="0" y="0" width="500" height="500" fill="rgb(27,84,208)"/><rect x="200.501" y="200" width="98.997" height="500" transform="matrix(0,1,-1,-0,700,200.902)" fill="rgb(51,51,51)"/><path d=" M 63.814 284.024 L 63.814 284.024 L 74.65 284.024 L 74.65 284.024 Q 74.65 295.448 68.938 301.58 L 68.938 301.58 L 68.938 301.58 Q 63.226 307.712 52.81 307.712 L 52.81 307.712 L 52.81 307.712 Q 29.878 307.712 29.878 280.748 L 29.878 280.748 L 29.878 275.708 L 29.878 275.708 Q 29.878 254.456 41.638 249.08 L 41.638 249.08 L 41.638 249.08 Q 46.258 246.896 52.81 246.896 L 52.81 246.896 L 52.81 246.896 Q 62.386 246.896 68.392 252.146 L 68.392 252.146 L 68.392 252.146 Q 74.398 257.396 74.398 267.308 L 74.398 267.308 L 63.478 267.308 L 63.478 267.308 Q 62.554 262.352 60.202 259.832 L 60.202 259.832 L 60.202 259.832 Q 57.85 257.312 52.81 257.312 L 52.81 257.312 L 52.81 257.312 Q 46.93 257.312 44.074 261.008 L 44.074 261.008 L 44.074 261.008 Q 42.058 263.612 41.722 269.912 L 41.722 269.912 L 41.722 269.912 Q 41.554 271.928 41.554 275.372 L 41.554 275.372 L 41.554 280.58 L 41.554 280.58 Q 41.554 290.24 44.242 293.768 L 44.242 293.768 L 44.242 293.768 Q 47.014 297.296 52.852 297.296 L 52.852 297.296 L 52.852 297.296 Q 58.69 297.296 60.916 294.062 L 60.916 294.062 L 60.916 294.062 Q 63.142 290.828 63.814 284.024 Z  M 128.41 274.532 L 128.41 274.532 L 128.41 279.068 L 128.41 279.068 Q 128.41 294.104 122.74 300.908 L 122.74 300.908 L 122.74 300.908 Q 117.07 307.712 104.554 307.712 L 104.554 307.712 L 104.554 307.712 Q 92.038 307.712 86.452 300.908 L 86.452 300.908 L 86.452 300.908 Q 80.866 294.104 80.866 278.816 L 80.866 278.816 L 80.866 274.448 L 80.866 274.448 Q 80.866 260.504 86.536 253.7 L 86.536 253.7 L 86.536 253.7 Q 92.206 246.896 104.512 246.896 L 104.512 246.896 L 104.512 246.896 Q 116.818 246.896 122.614 253.784 L 122.614 253.784 L 122.614 253.784 Q 128.41 260.672 128.41 274.532 Z  M 116.734 278.816 L 116.734 278.816 L 116.734 275.708 L 116.734 275.708 Q 116.734 267.644 114.718 262.856 L 114.718 262.856 L 114.718 262.856 Q 112.366 257.312 104.638 257.312 L 104.638 257.312 L 104.638 257.312 Q 96.826 257.312 94.474 262.856 L 94.474 262.856 L 94.474 262.856 Q 92.542 267.392 92.542 275.708 L 92.542 275.708 L 92.542 278.816 L 92.542 278.816 Q 92.542 289.652 95.566 293.432 L 95.566 293.432 L 95.566 293.432 Q 96.742 295.028 99.052 296.162 L 99.052 296.162 L 99.052 296.162 Q 101.362 297.296 104.596 297.296 L 104.596 297.296 L 104.596 297.296 Q 107.83 297.296 110.098 296.204 L 110.098 296.204 L 110.098 296.204 Q 112.366 295.112 113.626 293.516 L 113.626 293.516 L 113.626 293.516 Q 114.886 291.92 115.558 289.316 L 115.558 289.316 L 115.558 289.316 Q 116.734 285.2 116.734 278.816 Z  M 182.842 307.208 L 182.842 271.508 L 172.09 294.188 L 172.09 294.188 Q 169.738 298.724 166.252 298.724 L 166.252 298.724 L 166.252 298.724 Q 162.766 298.724 160.414 293.936 L 160.414 293.936 L 149.494 271.508 L 149.494 307.208 L 137.818 307.208 L 137.818 247.4 L 149.326 247.4 L 166.21 281.924 L 183.01 247.4 L 194.518 247.4 L 194.518 307.208 L 182.842 307.208 Z  M 250.966 307.208 L 250.966 271.508 L 240.214 294.188 L 240.214 294.188 Q 237.862 298.724 234.376 298.724 L 234.376 298.724 L 234.376 298.724 Q 230.89 298.724 228.538 293.936 L 228.538 293.936 L 217.618 271.508 L 217.618 307.208 L 205.942 307.208 L 205.942 247.4 L 217.45 247.4 L 234.334 281.924 L 251.134 247.4 L 262.642 247.4 L 262.642 307.208 L 250.966 307.208 Z  M 307.246 247.4 L 318.838 247.4 L 318.838 286.712 L 318.838 286.712 Q 318.838 296.456 312.244 302.084 L 312.244 302.084 L 312.244 302.084 Q 305.65 307.712 295.99 307.712 L 295.99 307.712 L 295.99 307.712 Q 286.33 307.712 279.736 302.084 L 279.736 302.084 L 279.736 302.084 Q 273.142 296.456 273.142 286.712 L 273.142 286.712 L 273.142 247.4 L 284.818 247.4 L 284.818 286.292 L 284.818 286.292 Q 284.818 291.836 287.884 294.566 L 287.884 294.566 L 287.884 294.566 Q 290.95 297.296 295.99 297.296 L 295.99 297.296 L 295.99 297.296 Q 301.03 297.296 304.138 294.566 L 304.138 294.566 L 304.138 294.566 Q 307.246 291.836 307.246 286.292 L 307.246 286.292 L 307.246 247.4 Z  M 369.91 247.4 L 369.91 257.816 L 353.866 257.816 L 353.866 307.208 L 342.19 307.208 L 342.19 257.816 L 326.23 257.816 L 326.23 247.4 L 369.91 247.4 Z  M 418.378 296.792 L 418.378 307.208 L 397.21 307.208 L 397.21 307.208 Q 387.13 307.208 383.056 303.722 L 383.056 303.722 L 383.056 303.722 Q 378.982 300.236 378.982 291.416 L 378.982 291.416 L 378.982 247.4 L 418.378 247.4 L 418.378 257.816 L 390.658 257.816 L 390.658 271.844 L 410.062 271.844 L 409.222 282.26 L 390.658 282.26 L 390.658 290.576 L 390.658 290.576 Q 390.658 294.104 392.254 295.448 L 392.254 295.448 L 392.254 295.448 Q 393.85 296.792 398.05 296.792 L 398.05 296.792 L 418.378 296.792 Z  M 470.122 289.568 L 470.122 289.568 L 470.122 289.568 Q 470.122 298.052 463.906 302.882 L 463.906 302.882 L 463.906 302.882 Q 457.69 307.712 448.03 307.712 L 448.03 307.712 L 448.03 307.712 Q 440.386 307.712 433.246 303.512 L 433.246 303.512 L 433.246 303.512 Q 429.718 301.328 427.45 297.338 L 427.45 297.338 L 427.45 297.338 Q 425.182 293.348 425.182 288.224 L 425.182 288.224 L 435.766 287.72 L 435.766 287.72 Q 435.766 292.256 439.63 294.776 L 439.63 294.776 L 439.63 294.776 Q 443.494 297.296 448.198 297.296 L 448.198 297.296 L 448.198 297.296 Q 458.698 297.296 458.698 289.904 L 458.698 289.904 L 458.698 289.904 Q 458.698 283.856 451.558 282.764 L 451.558 282.764 L 441.814 281.756 L 441.814 281.756 Q 434.506 280.664 430.222 276.548 L 430.222 276.548 L 430.222 276.548 Q 425.938 272.432 425.938 264.704 L 425.938 264.704 L 425.938 264.704 Q 425.938 256.976 432.07 251.936 L 432.07 251.936 L 432.07 251.936 Q 438.202 246.896 447.568 246.896 L 447.568 246.896 L 447.568 246.896 Q 456.934 246.896 462.646 251.642 L 462.646 251.642 L 462.646 251.642 Q 468.358 256.388 468.358 263.864 L 468.358 263.864 L 457.942 264.368 L 457.942 264.368 Q 456.514 257.06 448.114 257.06 L 448.114 257.06 L 448.114 257.06 Q 442.99 257.06 440.092 259.244 L 440.092 259.244 L 440.092 259.244 Q 437.194 261.428 437.194 264.41 L 437.194 264.41 L 437.194 264.41 Q 437.194 267.392 439.294 269.114 L 439.294 269.114 L 439.294 269.114 Q 441.394 270.836 444.502 271.256 L 444.502 271.256 L 454.078 272.264 L 454.078 272.264 Q 470.122 274.448 470.122 289.568 Z  M 161.212 176.672 L 161.212 176.672 L 161.212 176.672 Q 161.212 185.156 154.996 189.986 L 154.996 189.986 L 154.996 189.986 Q 148.78 194.816 139.12 194.816 L 139.12 194.816 L 139.12 194.816 Q 131.476 194.816 124.336 190.616 L 124.336 190.616 L 124.336 190.616 Q 120.808 188.432 118.54 184.442 L 118.54 184.442 L 118.54 184.442 Q 116.272 180.452 116.272 175.328 L 116.272 175.328 L 126.856 174.824 L 126.856 174.824 Q 126.856 179.36 130.72 181.88 L 130.72 181.88 L 130.72 181.88 Q 134.584 184.4 139.288 184.4 L 139.288 184.4 L 139.288 184.4 Q 149.788 184.4 149.788 177.008 L 149.788 177.008 L 149.788 177.008 Q 149.788 170.96 142.648 169.868 L 142.648 169.868 L 132.904 168.86 L 132.904 168.86 Q 125.596 167.768 121.312 163.652 L 121.312 163.652 L 121.312 163.652 Q 117.028 159.536 117.028 151.808 L 117.028 151.808 L 117.028 151.808 Q 117.028 144.08 123.16 139.04 L 123.16 139.04 L 123.16 139.04 Q 129.292 134 138.658 134 L 138.658 134 L 138.658 134 Q 148.024 134 153.736 138.746 L 153.736 138.746 L 153.736 138.746 Q 159.448 143.492 159.448 150.968 L 159.448 150.968 L 149.032 151.472 L 149.032 151.472 Q 147.604 144.164 139.204 144.164 L 139.204 144.164 L 139.204 144.164 Q 134.08 144.164 131.182 146.348 L 131.182 146.348 L 131.182 146.348 Q 128.284 148.532 128.284 151.514 L 128.284 151.514 L 128.284 151.514 Q 128.284 154.496 130.384 156.218 L 130.384 156.218 L 130.384 156.218 Q 132.484 157.94 135.592 158.36 L 135.592 158.36 L 145.168 159.368 L 145.168 159.368 Q 161.212 161.552 161.212 176.672 Z  M 202.876 134.504 L 214.468 134.504 L 214.468 173.816 L 214.468 173.816 Q 214.468 183.56 207.874 189.188 L 207.874 189.188 L 207.874 189.188 Q 201.28 194.816 191.62 194.816 L 191.62 194.816 L 191.62 194.816 Q 181.96 194.816 175.366 189.188 L 175.366 189.188 L 175.366 189.188 Q 168.772 183.56 168.772 173.816 L 168.772 173.816 L 168.772 134.504 L 180.448 134.504 L 180.448 173.396 L 180.448 173.396 Q 180.448 178.94 183.514 181.67 L 183.514 181.67 L 183.514 181.67 Q 186.58 184.4 191.62 184.4 L 191.62 184.4 L 191.62 184.4 Q 196.66 184.4 199.768 181.67 L 199.768 181.67 L 199.768 181.67 Q 202.876 178.94 202.876 173.396 L 202.876 173.396 L 202.876 134.504 Z  M 261.592 134.504 L 273.268 134.504 L 273.268 188.264 L 273.268 188.264 Q 273.268 191.036 271.588 193.01 L 271.588 193.01 L 271.588 193.01 Q 269.908 194.984 267.64 194.984 L 267.64 194.984 L 267.64 194.984 Q 261.844 194.984 258.148 188.264 L 258.148 188.264 L 237.484 155.924 L 237.484 194.312 L 225.808 194.312 L 225.808 134.504 L 237.064 134.504 L 261.592 173.648 L 261.592 134.504 Z  M 320.308 134.504 L 331.984 134.504 L 331.984 188.264 L 331.984 188.264 Q 331.984 191.036 330.304 193.01 L 330.304 193.01 L 330.304 193.01 Q 328.624 194.984 326.356 194.984 L 326.356 194.984 L 326.356 194.984 Q 320.56 194.984 316.864 188.264 L 316.864 188.264 L 296.2 155.924 L 296.2 194.312 L 284.524 194.312 L 284.524 134.504 L 295.78 134.504 L 320.308 173.648 L 320.308 134.504 Z  M 372.22 134.504 L 384.904 134.504 L 366.928 169.784 L 366.928 194.312 L 355.336 194.312 L 355.336 169.784 L 337.36 134.504 L 350.044 134.504 L 361.216 158.612 L 372.22 134.504 Z " fill-rule="evenodd" fill="rgb(255,255,255)"/><rect x="51.131" y="441.425" width="51" height="17.15" transform="matrix(-1,-0.002,0.002,-1,152.368,900.152)" fill="rgb(255,255,255)"/><rect x="224.698" y="441.425" width="51" height="17.15" transform="matrix(-1,-0.002,0.002,-1,499.501,900.497)" fill="rgb(255,255,255)"/><rect x="398.265" y="441.425" width="51" height="17.15" transform="matrix(-1,-0.002,0.002,-1,846.635,900.842)" fill="rgb(255,255,255)"/></svg>